<?xml version="1.0" encoding="UTF-8"?>
<svg version="1.1" xmlns="http://www.w3.org/2000/svg" width="512" height="512">
<path d="M0 0 C0.90182007 -0.00705963 1.80364014 -0.01411926 2.73278809 -0.02139282 C40.29099117 -0.2486147 40.29099117 -0.2486147 57.3046875 3.203125 C58.32014648 3.40180176 59.33560547 3.60047852 60.38183594 3.80517578 C108.76280095 13.48281862 151.80838147 36.0496411 187.3046875 70.203125 C187.88250977 70.75371582 188.46033203 71.30430664 189.05566406 71.87158203 C197.08958731 79.5566812 204.34632648 87.51466185 210.98242188 96.43652344 C212.30334815 98.20133558 213.65250587 99.94118986 215.0078125 101.6796875 C222.8643691 111.89321108 229.24836525 122.84519461 235.3046875 134.203125 C235.96815186 135.44376709 235.96815186 135.44376709 236.64501953 136.70947266 C266.93730665 194.32106381 271.22554952 264.42409772 252.04394531 326.19238281 C240.16792901 363.21287391 220.38036465 396.33474733 193.3046875 424.203125 C192.72605957 424.80753418 192.14743164 425.41194336 191.55126953 426.03466797 C183.02712909 434.92144134 174.22324998 442.90841714 164.3046875 450.203125 C163.44858887 450.84241943 163.44858887 450.84241943 162.57519531 451.49462891 C153.83416689 458.00972708 144.7869366 463.82863542 135.3046875 469.203125 C134.61342773 469.59999512 133.92216797 469.99686523 133.20996094 470.40576172 C76.74593369 502.53799935 7.21449216 508.93687981 -55.0703125 492.078125 C-93.28342058 481.18721124 -128.0501559 461.87242592 -157.01171875 434.69921875 C-159.29816223 432.57252678 -161.62518334 430.53239939 -164.0078125 428.515625 C-167.17924867 425.75277877 -169.95152466 422.81736015 -172.6640625 419.60546875 C-174.22452741 417.7599189 -175.80584472 415.94770125 -177.4140625 414.14453125 C-188.83154466 401.24724762 -198.13818294 387.12191045 -206.6953125 372.203125 C-207.35015625 371.08292969 -208.005 369.96273438 -208.6796875 368.80859375 C-222.73484253 343.76230748 -231.30988527 315.49399064 -235.6953125 287.203125 C-235.81245605 286.48576172 -235.92959961 285.76839844 -236.05029297 285.02929688 C-240.00779113 259.83773354 -239.02472076 232.24662365 -234.6953125 207.203125 C-234.53434082 206.2632373 -234.37336914 205.32334961 -234.20751953 204.35498047 C-225.95799266 158.20993248 -204.29948871 116.03094453 -172.81640625 81.546875 C-170.87699747 79.40388188 -169.00201951 77.21967862 -167.1328125 75.015625 C-164.2530769 71.71317592 -161.16502591 68.84870678 -157.8203125 66.0234375 C-156.39466229 64.80220037 -154.99842565 63.545834 -153.6328125 62.2578125 C-141.09757741 50.46250448 -126.72589263 40.53790625 -111.6953125 32.203125 C-110.94652832 31.77966797 -110.19774414 31.35621094 -109.42626953 30.91992188 C-81.34118989 15.13093878 -50.67429986 5.15300927 -18.6953125 1.203125 C-18.02643005 1.11692902 -17.35754761 1.03073303 -16.668396 0.94192505 C-11.09824578 0.26525792 -5.6081856 0.02927769 0 0 Z M-23.6953125 119.203125 C-23.92207672 119.78034302 -24.14884094 120.35756104 -24.38247681 120.95227051 C-39.73675537 160.03588867 -55.09103394 199.11950684 -70.4453125 238.203125 C-70.89902222 239.35802429 -71.35273193 240.51292358 -71.82019043 241.70281982 C-72.73725896 244.03717239 -73.65433253 246.37152297 -74.57141113 248.70587158 C-76.85697048 254.5235945 -79.1424435 260.3413513 -81.42773438 266.15917969 C-86.10872935 278.07563636 -90.79133496 289.99145677 -95.4765625 301.90625 C-100.48196724 314.63590504 -105.48272611 327.36737679 -110.47814941 340.10095215 C-111.65652412 343.1042654 -112.83555703 346.10731963 -114.01464844 349.11035156 C-115.73032532 353.48133513 -117.44239434 357.85371267 -119.15112305 362.22741699 C-119.75722034 363.77743234 -120.36445385 365.32700395 -120.97290039 366.87609863 C-121.78720909 368.95002315 -122.59734193 371.02552681 -123.40625 373.1015625 C-123.85274902 374.24286621 -124.29924805 375.38416992 -124.75927734 376.56005859 C-125.80658951 379.05001614 -125.80658951 379.05001614 -125.6953125 381.203125 C-100.6153125 381.203125 -75.5353125 381.203125 -49.6953125 381.203125 C-47.3853125 374.665 -45.0753125 368.126875 -42.6953125 361.390625 C-41.59896484 358.29917114 -41.59896484 358.29917114 -40.48046875 355.14526367 C-39.90587836 353.51233776 -39.33163573 351.87928941 -38.7578125 350.24609375 C-38.45552734 349.39776978 -38.15324219 348.5494458 -37.84179688 347.67541504 C-37.55755859 346.86366821 -37.27332031 346.05192139 -36.98046875 345.21557617 C-36.73176025 344.5116423 -36.48305176 343.80770844 -36.22680664 343.08244324 C-35.55924333 341.0475008 -35.55924333 341.0475008 -35.6953125 338.203125 C10.8346875 338.698125 10.8346875 338.698125 58.3046875 339.203125 C62.9246875 352.733125 67.5446875 366.263125 72.3046875 380.203125 C74.00136957 381.89980707 76.11600768 381.32281493 78.37908936 381.32754517 C79.10485168 381.32394989 79.83061401 381.32035461 80.57836914 381.31665039 C81.33929367 381.31679642 82.1002182 381.31694244 82.88420105 381.3170929 C85.41111048 381.31639362 87.93794712 381.30860055 90.46484375 381.30078125 C92.2121934 381.29891712 93.95954357 381.2974932 95.70689392 381.29649353 C100.31500684 381.29266793 104.92308845 381.28283729 109.53118896 381.27178955 C114.22977271 381.26157634 118.92836149 381.2569961 123.62695312 381.25195312 C132.85287837 381.24121505 142.07878034 381.22413813 151.3046875 381.203125 C149.32702291 375.05589562 147.12436216 369.04313221 144.7109375 363.0546875 C144.34407837 362.13829498 143.97721924 361.22190247 143.59924316 360.27774048 C142.33696146 357.12683172 141.07080931 353.97749249 139.8046875 350.828125 C138.87611213 348.51277149 137.9477355 346.19733826 137.01953125 343.88183594 C133.81821551 335.8984415 130.61069141 327.91754429 127.40319824 319.93663025 C125.80176362 315.95166243 124.20067535 311.96655547 122.59957123 307.98145485 C114.63932092 288.16864543 106.67850279 268.35606458 98.71289062 248.54541016 C87.326032 220.22496679 75.95638378 191.89788218 64.65621948 163.54272461 C62.73997642 158.73440622 60.8220745 153.92674973 58.90405273 149.11914062 C57.93867318 146.69792931 56.9740217 144.27644137 56.01049805 141.85449219 C54.58402627 138.26905978 53.15346111 134.68526807 51.72265625 131.1015625 C51.0744416 129.46941299 51.0744416 129.46941299 50.41313171 127.80429077 C50.01793839 126.81619415 49.62274506 125.82809753 49.21557617 124.81005859 C48.86919601 123.94077728 48.52281586 123.07149597 48.16593933 122.1758728 C47.4640623 120.24079223 47.4640623 120.24079223 46.3046875 119.203125 C44.12663031 119.10883158 41.9454747 119.08569962 39.76538086 119.08959961 C39.08248489 119.08945358 38.39958893 119.08930756 37.69599915 119.0891571 C35.42881136 119.08985624 33.16170476 119.0976486 30.89453125 119.10546875 C29.32654363 119.10733293 27.75855543 119.10875683 26.19056702 119.10975647 C22.05592247 119.11358166 17.92131284 119.12341194 13.78668213 119.13446045 C9.57068352 119.14467456 5.35467928 119.14925409 1.13867188 119.15429688 C-7.13933897 119.16503421 -15.4173214 119.18211064 -23.6953125 119.203125 Z " fill="#000000" transform="translate(243.6953125,5.796875)"/>
<path d="M0 0 C1.79536482 2.69304724 2.75587001 4.7961854 3.82836914 7.80908203 C4.17956314 8.789263 4.53075714 9.76944397 4.89259338 10.77932739 C5.26963913 11.84472748 5.64668488 12.91012756 6.03515625 14.0078125 C6.43270615 15.1206662 6.83025604 16.2335199 7.23985291 17.38009644 C8.51792077 20.9603709 9.7903455 24.54262064 11.0625 28.125 C12.3058993 31.61418766 13.55044742 35.1029642 14.79501343 38.59173584 C15.62136196 40.90962752 16.4467415 43.22786488 17.27114868 45.54644775 C19.37248477 51.453867 21.48753675 57.35580869 23.62841797 63.24902344 C24.04731796 64.4039328 24.46621796 65.55884216 24.89781189 66.74874878 C25.69764334 68.95117106 26.5000773 71.15265041 27.30543518 73.35305786 C27.6602446 74.3308017 28.01505402 75.30854553 28.38061523 76.31591797 C28.69441635 77.17539032 29.00821747 78.03486267 29.33152771 78.92037964 C30 81 30 81 30 83 C10.53 83 -8.94 83 -29 83 C-26.75011019 72.87549584 -26.75011019 72.87549584 -25.13989258 68.43041992 C-24.6034185 66.93662056 -24.6034185 66.93662056 -24.05610657 65.41264343 C-23.67278671 64.36252579 -23.28946686 63.31240814 -22.89453125 62.23046875 C-22.49223801 61.11424637 -22.08994476 59.99802399 -21.67546082 58.84797668 C-20.3929538 55.29259988 -19.10301353 51.7399775 -17.8125 48.1875 C-16.54535001 44.68460209 -15.27976742 41.18114163 -14.01461792 37.67752075 C-13.18904629 35.3919061 -12.36249849 33.10664379 -11.53494263 30.82174683 C-8.64897532 22.84245155 -5.82438818 14.84347286 -3.0773468 6.81523132 C-1.10676197 1.10676197 -1.10676197 1.10676197 0 0 Z " fill="#000000" transform="translate(255,206)"/>
</svg>
